<svg xmlns="http://www.w3.org/2000/svg" viewBox="0 0 26.261 20.04" fill="none">
  <path d="M 8.811 6.22 L 20.711 6.22 M 8.811 13.82 L 20.711 13.82 M 18.581 6.2 L 8.991 6.2 M 18.581 6.22 L 8.991 6.22 M 8.161 13.62 L 17.561 13.62 M 17.561 6.42 L 8.161 6.42 M 5.449 6.69 L 4.805 6.876 L 4.357 7.354 L 4.214 8.017 L 4.427 8.641 L 4.928 9.07 L 5.597 9.183 L 6.207 8.944 L 6.618 8.415 M 9.761 0.02 L 16.761 0.02 M 9.761 0.82 L 16.761 0.82 M 9.761 19.22 L 16.761 19.22 M 9.761 20.02 L 16.761 20.02 M 8.961 0.02 L 8.961 6.2 M 8.961 13.84 L 8.961 20.02 M 15.081 13.82 L 8.991 13.82 M 15.081 13.84 L 8.991 13.84 M 7.061 13.02 L 7.061 7.02 M 17.561 0.02 L 17.561 5.886 M 21.141 15.61 L 15.281 15.61 M 21.141 15.66 L 15.281 15.66 M 21.141 15.96 L 15.281 15.96 M 11.961 11.17 L 12.18 11.699 L 12.708 11.92 L 13.238 11.704 L 13.459 11.228 L 13.28 10.681 L 12.772 10.422 L 12.225 10.599 L 11.962 11.157 M 11.961 8.87 L 12.18 9.399 L 12.708 9.62 L 13.238 9.404 L 13.459 8.928 L 13.28 8.381 L 12.772 8.122 L 12.225 8.299 L 11.962 8.857 M 11.976 8.87 L 12.191 9.389 L 12.708 9.605 L 13.228 9.393 L 13.444 8.927 L 13.269 8.391 L 12.771 8.137 L 12.234 8.311 L 11.977 8.857 M 11.976 11.17 L 12.191 11.689 L 12.708 11.905 L 13.228 11.693 L 13.444 11.227 L 13.269 10.691 L 12.771 10.437 L 12.234 10.611 L 11.977 11.157 M 1.961 10.305 L 7.061 10.305 M 2.032 9.82 L 7.061 9.82 M 2.032 9.74 L 7.061 9.74 M 2.032 10.3 L 7.061 10.3 M 2.032 10.22 L 7.061 10.22 M 20.711 13.94 L 15.811 13.94 M 6.386 7.94 L 6.276 7.502 L 5.979 7.173 L 5.549 7.019 L 5.107 7.085 L 4.749 7.35 L 4.553 7.763 L 4.576 8.206 L 4.807 8.594 M 20.531 13.84 L 15.991 13.84 M 20.531 13.82 L 15.991 13.82 M 6.086 7.94 L 5.903 8.382 L 5.461 8.565 L 5.019 8.382 L 4.836 7.94 L 5.019 7.498 L 5.461 7.315 L 5.903 7.498 L 6.086 7.94 Z M 17.561 15.96 L 17.561 20.02 M 7.361 8.02 L 7.361 12.02 M 23.401 7.17 L 23.401 11.123 M 9.761 6.2 L 9.761 2.492 M 9.761 17.548 L 9.761 13.84 M 21.661 6.32 L 17.961 6.32 M 15.036 16.883 L 11.486 16.883 M 14.141 9.7 L 17.561 9.7 M 17.561 10.34 L 14.141 10.34 M 16.761 2.492 L 16.761 5.877 M 6.292 15.185 L 5.93 15.737 L 6.042 16.387 L 6.567 16.786 L 7.224 16.72 M 7.224 3.32 L 6.567 3.254 L 6.042 3.653 L 5.93 4.303 L 6.292 4.855 M 17.861 10.44 L 17.861 13.62 M 17.861 6.42 L 17.861 9.6 M 9.461 3.102 L 9.461 6.2 M 9.661 3.102 L 9.661 6.2 M 9.461 13.84 L 9.461 16.938 M 9.661 13.84 L 9.661 16.938 M 6.02 9.287 L 2.954 9.287 M 6.02 10.745 L 2.96 10.745 M 7.099 3.32 L 6.484 3.336 L 6.041 3.761 L 6.001 4.375 L 6.384 4.855 M 6.384 15.185 L 6.001 15.665 L 6.041 16.279 L 6.484 16.704 L 7.099 16.72 M 6.02 10.795 L 2.975 10.795 M 14.612 3.157 L 14.612 6.2 M 14.246 3.157 L 14.246 6.2 M 12.399 3.157 L 12.399 6.2 M 11.931 3.157 L 11.931 6.2 M 11.612 3.157 L 11.612 6.2 M 12.373 3.157 L 12.373 6.2 M 14.987 3.157 L 14.987 6.2 M 14.375 3.157 L 14.375 6.2 M 12.084 3.157 L 12.084 6.2 M 11.911 3.157 L 11.911 6.2 M 11.511 3.157 L 11.511 6.2 M 15.011 3.157 L 15.011 6.2 M 14.901 3.157 L 14.901 6.2 M 14.911 3.157 L 14.911 6.2 M 11.511 3.157 L 11.511 6.2" stroke="#1495ff" stroke-width="0.650" stroke-linecap="round" stroke-linejoin="round" vector-effect="non-scaling-stroke" />
</svg>