<svg xmlns="http://www.w3.org/2000/svg" viewBox="0 0 84.989 10.23" fill="none">
  <path d="M 19.01 4.683 L 58.934 4.683 M 19.01 4.177 L 58.934 4.177 M 19.01 4.105 L 58.85 4.105 M 19.01 4.755 L 58.85 4.755 M 22.675 4.975 L 56.395 4.975 M 22.675 1.695 L 56.395 1.695 M 22.675 3.885 L 56.395 3.885 M 56.335 3.609 L 22.735 3.609 M 56.335 1.971 L 22.735 1.971 M 56.335 5.251 L 22.735 5.251 M 56.335 6.889 L 22.735 6.889 M 56.185 3.703 L 22.885 3.703 M 56.185 3.777 L 22.885 3.777 M 56.185 1.592 L 22.885 1.592 M 56.185 3.988 L 22.885 3.988 M 56.185 1.803 L 22.885 1.803 M 56.185 1.878 L 22.885 1.878 M 56.185 6.01 L 22.885 6.01 M 56.185 6.13 L 22.885 6.13 M 56.185 5.083 L 22.885 5.083 M 56.185 5.158 L 22.885 5.158 M 56.185 2.73 L 22.885 2.73 M 56.185 2.85 L 22.885 2.85 M 56.185 4.872 L 22.885 4.872 M 56.185 6.983 L 22.885 6.983 M 56.185 7.057 L 22.885 7.057 M 55.04 7.07 L 23.84 7.07 M 55.04 8.27 L 23.84 8.27 M 55.04 7.47 L 23.84 7.47 M 25.456 8.33 L 51.29 8.33 M 25.456 1.33 L 51.29 1.33 M 82.21 4.23 L 59.21 4.23 M 59.21 4.63 L 82.21 4.63 M 82.21 3.264 L 59.21 3.264 M 59.21 5.596 L 82.21 5.596 M 39.11 4.33 L 59.21 4.33 M 59.21 4.53 L 39.11 4.53 M 19.01 4.33 L 39.11 4.33 M 39.11 4.53 L 19.01 4.53 M 19.01 4.23 L 0 4.23 M 0 4.63 L 19.01 4.63 M 19.01 3.264 L 0 3.264 M 0.05 5.596 L 19.01 5.596 M 7.51 4.351 L 19.01 4.351 M 19.01 4.509 L 7.51 4.509 M 70.71 4.351 L 82.21 4.351 M 82.21 4.509 L 70.71 4.509 M 59.21 4.351 L 70.71 4.351 M 70.71 4.509 L 59.21 4.509 M 0 4.351 L 7.51 4.351 M 7.51 4.509 L 0 4.509 M 39.21 4.83 L 45.31 4.83 M 39.21 4.03 L 45.31 4.03 M 32.91 4.83 L 38.41 4.83 M 32.91 4.03 L 38.41 4.03 M 26.743 4.83 L 32.11 4.83 M 27.603 4.03 L 32.11 4.03 M 46.11 4.83 L 50.41 4.83 M 46.11 4.03 L 50.41 4.03 M 54.926 8.33 L 59.09 8.33 M 55.04 7.53 L 59.09 7.53" stroke="#1495ff" stroke-width="1.020" stroke-linecap="round" stroke-linejoin="round" vector-effect="non-scaling-stroke" />
</svg>