<svg xmlns="http://www.w3.org/2000/svg" viewBox="0 0 35.074 46.04" fill="none">
  <path d="M 32.537 5.8 L 18.437 5.8 M 32.537 5 L 18.437 5 M 2.037 18 L 2.037 32 M 1.237 18 L 1.237 32 M 33.837 18 L 33.837 32 M 33.037 18 L 33.037 32 M 1.384 32 L 1.384 18 M 1.962 32 L 1.962 18 M 1.89 18 L 1.89 32 M 1.312 18 L 1.312 32 M 17.284 32 L 17.284 18 M 17.862 32 L 17.862 18 M 17.79 18 L 17.79 32 M 17.212 18 L 17.212 32 M 33.184 32 L 33.184 18 M 33.762 32 L 33.762 18 M 33.69 18 L 33.69 32 M 33.112 18 L 33.112 32 M 17.937 18 L 17.937 32 M 17.137 18 L 17.137 32 M 32.437 45.84 L 18.537 45.84 M 32.437 45.04 L 18.537 45.04 M 16.537 45.84 L 2.637 45.84 M 16.537 45.04 L 2.637 45.04 M 16.382 18.4 L 2.792 18.4 M 16.382 17.6 L 2.792 17.6 M 16.382 32.4 L 2.792 32.4 M 16.382 31.6 L 2.792 31.6 M 32.282 32.4 L 18.692 32.4 M 32.282 31.6 L 18.692 31.6 M 32.282 18.4 L 18.692 18.4 M 32.282 17.6 L 18.692 17.6 M 17.212 4.5 L 17.212 18 M 17.862 18 L 17.862 4.5 M 17.79 4.5 L 17.79 18 M 17.284 18 L 17.284 4.5 M 1.312 4.5 L 1.312 18 M 1.962 18 L 1.962 4.5 M 1.89 4.5 L 1.89 18 M 1.384 18 L 1.384 4.5 M 33.112 4.5 L 33.112 18 M 33.762 18 L 33.762 4.5 M 33.69 4.5 L 33.69 18 M 33.184 18 L 33.184 4.5 M 33.837 4.9 L 33.837 18 M 33.037 4.9 L 33.037 18 M 17.937 4.9 L 17.937 18 M 17.137 4.9 L 17.137 18 M 2.037 4.9 L 2.037 18 M 1.237 4.9 L 1.237 18 M 31.8 3.2 L 19.174 3.2 M 31.8 3.8 L 19.174 3.8 M 14.624 4.5 L 2.537 4.5 M 14.592 3.8 L 3.274 3.8 M 14.524 3.2 L 3.274 3.2 M 16.637 6.4 L 16.637 16.6 M 12.222 12.12 L 3.037 12.12 M 11.877 5 L 3.037 5 M 33.762 40.7 L 33.762 32 M 33.69 32 L 33.69 40.7 M 33.112 32 L 33.112 40.7 M 33.184 40.7 L 33.184 32 M 1.962 40.7 L 1.962 32 M 1.89 32 L 1.89 40.7 M 1.312 32 L 1.312 40.7 M 1.384 40.7 L 1.384 32 M 17.862 40.7 L 17.862 32 M 17.79 32 L 17.79 40.7 M 17.212 32 L 17.212 40.7 M 17.284 40.7 L 17.284 32 M 10.537 11.62 L 2.537 11.62 M 10.537 11.876 L 2.537 11.876" stroke="#1495ff" stroke-width="0.650" stroke-linecap="round" stroke-linejoin="round" vector-effect="non-scaling-stroke" />
</svg>