<svg xmlns="http://www.w3.org/2000/svg" viewBox="0 0 34.757 17.821" fill="none">
  <path d="M 16.537 11.341 L 2.237 11.341 M 16.537 6.026 L 2.237 6.026 M 16.537 6.863 L 2.237 6.863 M 32.437 6.026 L 18.137 6.026 M 32.437 6.863 L 18.137 6.863 M 32.437 11.341 L 18.137 11.341 M 32.137 3.365 L 18.34 3.365 M 31.8 2.448 L 18.774 2.448 M 31.8 3.048 L 18.774 3.048 M 17.937 16.484 L 17.937 3.665 M 18.037 16.484 L 18.037 3.665 M 0.737 16.484 L 0.737 3.665 M 0.837 16.484 L 0.837 3.665 M 32.537 16.484 L 32.537 3.665 M 32.637 16.484 L 32.637 3.665 M 33.837 16.484 L 33.837 3.665 M 33.937 16.484 L 33.937 3.665 M 16.637 16.484 L 16.637 3.665 M 16.737 16.484 L 16.737 3.665 M 2.037 16.484 L 2.037 3.665 M 2.137 16.484 L 2.137 3.665 M 31.037 3.865 L 19.537 3.865 M 14.193 2.448 L 2.874 2.448 M 14.193 3.048 L 2.874 3.048 M 11.027 3.471 L 3.637 3.471 M 8.987 10.504 L 2.237 10.504 M 24.887 10.504 L 18.137 10.504 M 16.537 10.504 L 9.787 10.504 M 32.437 10.504 L 25.687 10.504 M 0.337 5.671 L 0.337 12.121 M 34.337 5.671 L 34.337 12.121 M 24.887 10.485 L 18.537 10.485 M 8.987 10.091 L 2.637 10.091 M 32.037 10.485 L 25.687 10.485 M 8.987 10.347 L 3.257 10.347 M 8.987 10.091 L 3.257 10.091 M 24.887 10.589 L 24.887 6.863 M 25.687 10.589 L 25.687 6.863 M 8.987 10.589 L 8.987 6.863 M 9.787 10.589 L 9.787 6.863 M 32.137 6.863 L 32.137 10.504 M 18.437 6.863 L 18.437 10.504 M 2.537 6.863 L 2.537 9.591 M 16.237 6.863 L 16.237 9.591 M 11.722 4.111 L 14.396 4.111 M 11.722 3.872 L 14.353 3.872 M 11.793 3.801 L 14.353 3.801 M 14.353 1.951 L 12.022 1.951 M 0.537 15.851 L 0.537 13.565 M 16.437 15.851 L 16.437 13.565 M 32.337 15.851 L 32.337 13.565 M 2.337 16.043 L 2.337 13.757 M 18.237 16.043 L 18.237 13.757 M 34.137 16.043 L 34.137 13.757 M 18.037 2.331 L 18.037 0.12 M 17.937 2.331 L 17.937 0.12 M 0.837 2.331 L 0.837 0.12 M 0.737 2.331 L 0.737 0.12 M 32.637 2.331 L 32.637 0.12 M 32.537 2.331 L 32.537 0.12 M 33.937 2.331 L 33.937 0.12 M 33.837 2.331 L 33.837 0.12 M 16.737 2.331 L 16.737 0.12 M 16.637 2.331 L 16.637 0.12 M 2.137 2.331 L 2.137 0.12 M 2.037 2.331 L 2.037 0.12 M 11.622 3.911 L 11.622 6.026 M 11.622 6.863 L 11.622 8.911 M 11.677 10.091 L 9.787 10.091 M 14.147 7.761 L 12.297 7.761 M 14.147 7.061 L 12.297 7.061 M 14.147 4.461 L 12.297 4.461" stroke="#1495ff" stroke-width="0.650" stroke-linecap="round" stroke-linejoin="round" vector-effect="non-scaling-stroke" />
</svg>