<svg xmlns="http://www.w3.org/2000/svg" viewBox="0 0 60.435 9.618" fill="none">
  <path d="M 30.78 4.483 L 1.98 4.483 M 30.78 4.409 L 1.98 4.409 M 30.78 5.209 L 1.98 5.209 M 30.78 5.135 L 1.98 5.135 M 57.23 4.483 L 30.78 4.483 M 57.23 4.409 L 30.78 4.409 M 57.23 5.209 L 30.78 5.209 M 57.23 5.135 L 30.78 5.135 M 31.934 0.139 L 37.96 0.139 M 17.534 0.139 L 23.56 0.139 M 24.734 0.139 L 30.76 0.139 M 31.934 9.479 L 37.96 9.479 M 24.734 9.479 L 30.76 9.479 M 17.534 9.479 L 23.56 9.479 M 10.334 9.479 L 16.36 9.479 M 10.334 0.139 L 16.36 0.139 M 39.134 0.139 L 45.16 0.139 M 46.334 0.139 L 52.36 0.139 M 39.134 9.479 L 45.16 9.479 M 46.334 9.479 L 52.36 9.479 M 53.444 5.219 L 59.437 5.219 M 53.444 5.319 L 59.437 5.319 M 53.444 4.299 L 59.437 4.299 M 53.444 4.399 L 59.437 4.399 M 8.72 7.809 L 2.914 7.809 M 8.72 1.809 L 2.914 1.809 M 52.11 5.219 L 46.531 5.219 M 37.71 5.219 L 32.131 5.219 M 16.11 5.219 L 10.531 5.219 M 23.31 5.219 L 17.731 5.219 M 44.91 5.219 L 39.331 5.219 M 58.87 1.809 L 53.314 1.809 M 58.87 7.809 L 53.314 7.809 M 30.41 5.219 L 24.931 5.219 M 51.99 4.399 L 46.531 4.399 M 37.59 4.399 L 32.131 4.399 M 23.19 4.399 L 17.731 4.399 M 8.79 5.219 L 3.331 5.219 M 8.79 4.399 L 3.331 4.399 M 30.39 4.399 L 24.931 4.399 M 15.99 4.399 L 10.531 4.399 M 44.79 4.399 L 39.331 4.399 M 0.008 6.849 L 1.548 9.509 M 0.008 2.769 L 1.548 0.109 M 9.3 5.269 L 9.3 9.519 M 9.3 4.349 L 9.3 0.099 M 2.1 5.219 L 2.1 9.429 M 2.1 4.399 L 2.1 0.189 M 38.864 0.189 L 38.864 4.349 M 45.3 4.349 L 45.3 0.189 M 46.064 0.189 L 46.064 4.349 M 52.5 4.349 L 52.5 0.189 M 31.664 0.189 L 31.664 4.349 M 38.1 4.349 L 38.1 0.189 M 38.864 9.429 L 38.864 5.269 M 45.3 5.269 L 45.3 9.429 M 17.264 0.189 L 17.264 4.349 M 23.7 4.349 L 23.7 0.189 M 2.864 0.139 L 2.864 4.299 M 46.064 9.429 L 46.064 5.269 M 52.5 5.269 L 52.5 9.429 M 24.464 0.189 L 24.464 4.349 M 30.9 4.349 L 30.9 0.189 M 31.664 9.429 L 31.664 5.269 M 38.1 5.269 L 38.1 9.429 M 24.464 9.429 L 24.464 5.269 M 30.9 5.269 L 30.9 9.429 M 17.264 9.429 L 17.264 5.269 M 23.7 5.269 L 23.7 9.429 M 10.064 9.429 L 10.064 5.269 M 16.5 5.269 L 16.5 9.429 M 10.064 0.189 L 10.064 4.349" stroke="#1495ff" stroke-width="0.725" stroke-linecap="round" stroke-linejoin="round" vector-effect="non-scaling-stroke" />
</svg>