<svg xmlns="http://www.w3.org/2000/svg" viewBox="0 0 24.271 14.094" fill="none">
  <path d="M 6.951 0.8 L 20.591 0.8 M 20.591 4.3 L 6.951 4.3 M 8.071 4.7 L 19.471 4.7 M 8.111 4.74 L 19.431 4.74 M 4.041 4.55 L 4.041 12.55 M 23.501 4.55 L 23.501 12.55 M 17.671 12.8 L 9.871 12.8 M 9.871 4.3 L 17.671 4.3 M 19.431 4.74 L 19.431 12.36 M 8.111 12.36 L 8.111 4.74 M 3.371 12.29 L 3.371 4.81 M 3.971 12.29 L 3.971 4.81 M 23.571 12.29 L 23.571 4.81 M 24.171 12.29 L 24.171 4.81 M 19.471 4.9 L 19.471 12.2 M 8.071 4.9 L 8.071 12.2 M 13.791 0.55 L 20.591 0.55 M 6.951 0.55 L 13.751 0.55 M 13.956 0.57 L 20.436 0.57 M 7.106 0.77 L 13.586 0.77 M 13.956 0.77 L 20.436 0.77 M 7.106 0.57 L 13.586 0.57 M 13.571 0.57 L 7.121 0.57 M 13.571 0.77 L 7.121 0.77 M 20.421 0.57 L 13.971 0.57 M 20.421 0.77 L 13.971 0.77 M 7.897 13.992 L 9.096 14.091 L 10.294 14.047 L 11.477 13.859 L 12.634 13.529 M 8.071 12.4 L 13.603 12.4 M 13.939 12.4 L 19.471 12.4 M 13.585 12.36 L 8.111 12.36 M 19.431 12.36 L 13.958 12.36 M 8.276 13.551 L 10.393 13.625 L 12.478 13.253 M 5.963 2.97 L 1.425 2.97 M 2.426 3.905 L 2.426 8.105 M 1.534 8.105 L 1.534 3.905 M 2.466 8.105 L 2.466 3.905 M 3.042 3.905 L 3.042 8.1 M 3.082 8.1 L 3.082 3.905 M 3.247 3.905 L 3.247 8.1 M 2.829 8.1 L 2.829 3.905 M 2.621 8.1 L 2.621 3.905 M 3.035 8.1 L 3.035 3.905 M 2.837 3.905 L 2.837 8.1 M 2.877 8.1 L 2.877 3.905 M 2.672 8.1 L 2.672 3.905 M 3.241 8.1 L 3.241 3.905 M 2.632 3.905 L 2.632 8.1 M 6.771 8.3 L 6.771 4.3 M 20.771 4.3 L 20.771 8.3 M 20.771 8.8 L 20.771 12.8 M 6.771 12.8 L 6.771 8.8 M 15.171 12.92 L 11.513 12.92 M 3.287 8.1 L 3.287 4.55 M 6.921 4.3 L 6.921 0.8 M 6.951 4.3 L 6.951 0.8 M 20.591 0.8 L 20.591 4.3 M 20.621 0.8 L 20.621 4.3 M 20.591 0.8 L 20.591 4.3 M 6.951 4.3 L 6.951 0.8 M 3.545 2.165 L 6.921 2.165 M 3.545 1.955 L 6.921 1.955 M 3.545 1.405 L 6.921 1.405 M 3.545 1.575 L 6.921 1.575 M 3.545 1.595 L 6.921 1.595 M 3.545 1.975 L 6.921 1.975 M 3.545 2.145 L 6.921 2.145 M 3.545 2.335 L 6.828 2.335 M 3.545 1.785 L 6.828 1.785 M 3.545 1.765 L 6.828 1.765 M 22.121 1.05 L 22.121 4.05 M 18.171 4.3 L 20.771 4.3 M 9.371 12.8 L 6.771 12.8" stroke="#1495ff" stroke-width="0.650" stroke-linecap="round" stroke-linejoin="round" vector-effect="non-scaling-stroke" />
</svg>