<svg xmlns="http://www.w3.org/2000/svg" viewBox="0 0 30 11.348" fill="none">
  <path d="M 28.049 0.154 L 28.049 11.194 M 20.451 11.194 L 20.451 0.154 M 29.6 11.194 L 29.6 0.154 M 30 11.194 L 30 0.154 M 0 11.194 L 0 0.154 M 0.4 11.194 L 0.4 0.154 M 18.799 0.154 L 18.799 11.194 M 11.201 11.194 L 11.201 0.154 M 9.549 0.154 L 9.549 11.194 M 1.951 11.194 L 1.951 0.154 M 19.181 0.674 L 19.181 10.674 M 20.071 0.674 L 20.071 10.674 M 9.931 0.674 L 9.931 10.674 M 10.821 0.674 L 10.821 10.674 M 0.681 0.674 L 0.681 10.674 M 1.571 0.674 L 1.571 10.674 M 28.431 0.674 L 28.431 10.674 M 29.321 0.674 L 29.321 10.674 M 27.655 11.264 L 20.845 11.264 M 20.845 0.084 L 27.655 0.084 M 18.405 11.264 L 11.595 11.264 M 11.595 0.084 L 18.405 0.084 M 9.155 11.264 L 2.345 11.264 M 2.345 0.084 L 9.155 0.084 M 9.155 11.244 L 11.595 11.244 M 11.595 0.104 L 9.155 0.104 M 18.405 11.244 L 20.845 11.244 M 20.845 0.104 L 18.405 0.104 M 0 11.244 L 2.345 11.244 M 2.345 0.104 L 0 0.104 M 27.655 11.244 L 30 11.244 M 30 0.104 L 27.655 0.104 M 9.549 11.194 L 11.201 11.194 M 18.799 11.194 L 20.451 11.194 M 20.451 0.154 L 18.799 0.154 M 11.201 0.154 L 9.549 0.154 M 28.049 11.194 L 29.609 11.194 M 29.609 0.154 L 28.049 0.154 M 0.391 11.194 L 1.951 11.194 M 1.951 0.154 L 0.391 0.154" stroke="#1495ff" stroke-width="0.650" stroke-linecap="round" stroke-linejoin="round" vector-effect="non-scaling-stroke" />
</svg>