<svg xmlns="http://www.w3.org/2000/svg" viewBox="0 0 43.614 31.064" fill="none">
  <path d="M 42.307 24.732 L 29.307 24.732 M 42.307 24.332 L 29.307 24.332 M 42.307 6.032 L 29.307 6.032 M 42.307 5.632 L 29.307 5.632 M 14.307 6.032 L 1.307 6.032 M 14.307 5.632 L 1.307 5.632 M 14.307 24.732 L 1.307 24.732 M 14.307 24.332 L 1.307 24.332 M 28.307 24.732 L 15.307 24.732 M 28.307 24.332 L 15.307 24.332 M 28.307 6.032 L 15.307 6.032 M 28.307 5.632 L 15.307 5.632 M 27.282 30.314 L 16.346 30.314 M 27.282 30.649 L 16.346 30.649 M 13.282 30.314 L 2.346 30.314 M 13.282 30.649 L 2.346 30.649 M 41.282 30.314 L 30.346 30.314 M 41.282 30.649 L 30.346 30.649 M 15.207 21.802 L 15.207 29.832 M 14.407 21.802 L 14.407 29.832 M 1.207 21.802 L 1.207 29.832 M 0.407 21.802 L 0.407 29.832 M 43.207 21.802 L 43.207 29.832 M 42.407 21.802 L 42.407 29.832 M 29.207 21.802 L 29.207 29.832 M 28.407 21.802 L 28.407 29.832 M 15.207 1.332 L 15.207 9.102 M 14.407 1.332 L 14.407 9.102 M 1.207 1.332 L 1.207 9.102 M 0.407 1.332 L 0.407 9.102 M 43.207 1.332 L 43.207 9.102 M 42.407 1.332 L 42.407 9.102 M 29.207 1.332 L 29.207 9.102 M 28.407 1.332 L 28.407 9.102 M 15.207 9.802 L 15.207 15.102 M 15.207 15.802 L 15.207 21.102 M 14.407 9.802 L 14.407 15.102 M 14.407 15.802 L 14.407 21.102 M 1.207 9.802 L 1.207 15.102 M 1.207 15.802 L 1.207 21.102 M 0.407 9.802 L 0.407 15.102 M 0.407 15.802 L 0.407 21.102 M 43.207 9.802 L 43.207 15.102 M 43.207 15.802 L 43.207 21.102 M 42.407 9.802 L 42.407 15.102 M 42.407 15.802 L 42.407 21.102 M 29.207 9.802 L 29.207 15.102 M 29.207 15.802 L 29.207 21.102 M 28.407 9.802 L 28.407 15.102 M 28.407 15.802 L 28.407 21.102 M 42.407 26.032 L 42.407 23.032 M 42.357 26.032 L 42.357 23.032 M 28.357 4.332 L 28.357 7.332 M 28.407 4.332 L 28.407 7.332 M 42.407 7.332 L 42.407 4.332 M 42.357 7.332 L 42.357 4.332 M 0.407 26.032 L 0.407 23.032 M 0.357 26.032 L 0.357 23.032 M 43.257 7.332 L 43.257 4.332 M 43.207 7.332 L 43.207 4.332 M 0.407 7.332 L 0.407 4.332 M 0.357 7.332 L 0.357 4.332 M 29.207 4.332 L 29.207 7.332 M 29.257 4.332 L 29.257 7.332 M 14.407 26.032 L 14.407 23.032 M 14.357 26.032 L 14.357 23.032 M 15.257 7.332 L 15.257 4.332 M 15.207 7.332 L 15.207 4.332 M 14.407 7.332 L 14.407 4.332 M 14.357 7.332 L 14.357 4.332 M 1.257 26.032 L 1.257 23.032 M 1.207 26.032 L 1.207 23.032" stroke="#1495ff" stroke-width="0.650" stroke-linecap="round" stroke-linejoin="round" vector-effect="non-scaling-stroke" />
</svg>