<svg xmlns="http://www.w3.org/2000/svg" viewBox="0 0 11.595 11.348" fill="none">
  <path d="M 0 0.084 L 0 11.264 M 11.595 0.154 L 11.595 11.194 M 11.195 0.154 L 11.195 11.194 M 0.394 0.154 L 0.394 11.194 M 2.046 11.194 L 2.046 0.154 M 9.644 0.154 L 9.644 11.194 M 1.664 10.674 L 1.664 0.674 M 0.774 10.674 L 0.774 0.674 M 10.914 10.674 L 10.914 0.674 M 10.024 10.674 L 10.024 0.674 M 2.44 0.084 L 9.25 0.084 M 9.25 11.264 L 2.44 11.264 M 2.44 0.104 L 0 0.104 M 0 11.244 L 2.44 11.244 M 11.595 0.104 L 9.25 0.104 M 9.25 11.244 L 11.595 11.244 M 2.046 0.154 L 0.394 0.154 M 0.394 11.194 L 2.046 11.194 M 11.204 0.154 L 9.644 0.154 M 9.644 11.194 L 11.204 11.194 M 10.024 0.674 L 10.914 0.674 M 10.024 10.674 L 10.914 10.674 M 0.774 0.674 L 1.664 0.674 M 0.774 10.674 L 1.664 10.674 M 2.046 0.604 L 1.319 0.604 M 1.319 10.744 L 2.046 10.744 M 1.119 0.604 L 0.394 0.604 M 0.394 10.744 L 1.119 10.744 M 10.369 0.604 L 9.644 0.604 M 9.644 10.744 L 10.369 10.744 M 11.195 0.604 L 10.569 0.604 M 10.569 10.744 L 11.195 10.744 M 0.913 10.813 L 1.526 10.813 M 1.526 11.075 L 0.913 11.075 M 1.526 0.535 L 0.913 0.535 M 0.913 0.273 L 1.526 0.273 M 10.163 10.813 L 10.776 10.813 M 10.776 11.075 L 10.163 11.075 M 10.776 0.535 L 10.163 0.535 M 10.163 0.273 L 10.776 0.273 M 10.095 0.399 L 10.002 0.499 L 9.895 0.406 L 9.988 0.299 L 10.095 0.399 Z M 10.095 10.949 L 10.002 11.049 L 9.895 10.956 L 9.988 10.849 L 10.095 10.949 Z M 0.845 0.399 L 0.752 0.499 L 0.645 0.406 L 0.738 0.299 L 0.845 0.399 Z M 1.795 0.399 L 1.702 0.499 L 1.595 0.406 L 1.688 0.299 L 1.795 0.399 Z M 11.045 0.399 L 10.952 0.499 L 10.845 0.406 L 10.938 0.299 L 11.045 0.399 Z M 0.845 10.949 L 0.752 11.049 L 0.645 10.956 L 0.738 10.849 L 0.845 10.949 Z M 1.795 10.949 L 1.702 11.049 L 1.595 10.956 L 1.688 10.849 L 1.795 10.949 Z M 11.045 10.949 L 10.952 11.049 L 10.845 10.956 L 10.938 10.849 L 11.045 10.949 Z M 1.319 0.604 L 1.87 0.604 M 1.319 10.744 L 1.87 10.744 M 11.12 10.744 L 10.569 10.744 M 10.569 0.604 L 11.12 0.604 M 0.57 0.604 L 1.119 0.604 M 0.57 10.744 L 1.119 10.744 M 10.369 10.744 L 9.82 10.744 M 9.82 0.604 L 10.369 0.604" stroke="#1495ff" stroke-width="0.650" stroke-linecap="round" stroke-linejoin="round" vector-effect="non-scaling-stroke" />
</svg>