<svg xmlns="http://www.w3.org/2000/svg" viewBox="0 0 20.56 16.265" fill="none">
  <path d="M 19.79 14.795 L 19.79 3.795 M 1.33 3.795 L 1.33 14.795 M 5.24 0.045 L 15.88 0.045 M 15.88 3.545 L 5.24 3.545 M 14.72 3.985 L 14.72 14.605 M 6.4 14.605 L 6.4 3.985 M 0.66 14.535 L 0.66 4.055 M 1.26 14.535 L 1.26 4.055 M 19.86 14.535 L 19.86 4.055 M 20.46 14.535 L 20.46 4.055 M 14.76 4.145 L 14.76 14.445 M 6.36 4.145 L 6.36 14.445 M 6.36 3.945 L 14.76 3.945 M 6.4 3.985 L 14.72 3.985 M 16.06 6.145 L 16.06 12.445 M 5.06 12.445 L 5.06 6.145 M 13.46 15.045 L 7.66 15.045 M 7.66 3.545 L 13.46 3.545 M 5.395 0.015 L 10.375 0.015 M 10.745 0.015 L 15.725 0.015 M 15.71 0.015 L 10.76 0.015 M 10.36 0.015 L 5.41 0.015 M 5.403 16.229 L 7.383 16.195 L 9.318 15.771 M 10.731 14.645 L 14.76 14.645 M 6.36 14.645 L 10.389 14.645 M 14.72 14.605 L 10.748 14.605 M 10.371 14.605 L 6.4 14.605 M 5.783 15.772 L 7.486 15.776 L 9.164 15.49 M 4.4 2.406 L 0.8 2.406 M 5.21 3.545 L 5.21 0.045 M 5.24 3.545 L 5.24 0.045 M 15.88 0.045 L 15.88 3.545 M 15.91 0.045 L 15.91 3.545 M 15.88 0.045 L 15.88 3.545 M 5.24 3.545 L 5.24 0.045 M 1.772 1.745 L 5.19 1.745 M 1.772 0.245 L 5.19 0.245 M 16.06 14.895 L 19.46 14.895 M 5.06 3.695 L 1.66 3.695 M 5.06 14.895 L 1.66 14.895 M 16.06 4.545 L 19.422 4.545 M 16.06 4.505 L 19.422 4.505 M 17.41 0.295 L 17.41 3.295 M 11.51 15.165 L 8.552 15.165 M 7.16 15.045 L 5.06 15.045 M 5.06 3.545 L 7.16 3.545 M 5.06 5.645 L 5.06 3.545 M 5.06 15.045 L 5.06 12.945 M 16.06 3.545 L 16.06 5.645 M 16.06 12.945 L 16.06 15.045 M 16.46 4.145 L 18.56 4.145 M 13.96 3.545 L 16.06 3.545 M 15.515 8.345 L 15.515 6.345 M 15.605 6.345 L 15.605 8.345 M 15.515 13.145 L 15.515 11.145 M 15.605 11.145 L 15.605 13.145 M 13.243 1.673 L 13.155 1.886 L 12.963 1.973 L 12.745 1.899 L 12.643 1.694 L 12.717 1.475 L 12.943 1.373 L 13.155 1.461 L 13.243 1.673 Z M 13.023 2.093 L 11.063 2.093 M 13.023 1.973 L 11.063 1.973 M 8.053 2.045 L 9.978 2.045 M 8.152 1.985 L 9.978 1.985 M 8.152 1.965 L 9.978 1.965 M 13.223 1.673 L 13.141 1.871 L 12.962 1.953 L 12.758 1.884 L 12.663 1.693 L 12.745 1.475 L 12.943 1.393 L 13.141 1.475 L 13.223 1.673 Z M 15.75 15.545 L 15.674 15.729 L 15.49 15.805 L 15.306 15.729 L 15.23 15.545 L 15.306 15.361 L 15.49 15.285 L 15.674 15.361 L 15.75 15.545 Z M 9.71 15.565 L 9.637 15.742 L 9.46 15.815 L 9.283 15.742 L 9.21 15.565 L 9.283 15.388 L 9.46 15.315 L 9.637 15.388 L 9.71 15.565 Z M 9.978 1.875 L 8.371 1.875 M 9.978 1.855 L 8.371 1.855 M 9.978 1.795 L 8.371 1.795 M 18.56 4.145 L 18.56 2.595 M 5.499 16.147 L 6.26 15.145 M 2.235 1.89 L 0.73 1.89 M 5.19 1.745 L 5.19 0.245" stroke="#1495ff" stroke-width="0.650" stroke-linecap="round" stroke-linejoin="round" vector-effect="non-scaling-stroke" />
</svg>