<svg xmlns="http://www.w3.org/2000/svg" viewBox="0 0 34 12.775" fill="none">
  <path d="M 13.145 1.6 L 23.265 1.6 M 13.145 9.6 L 23.265 9.6 M 32.94 2.025 L 27.63 0.495 M 23.305 1.6 L 23.305 9.6 M 23.295 1.635 L 23.295 9.565 M 7.878 9.56 L 7.878 1.64 M 27.63 0.495 L 20.83 0.495 M 24.137 1.58 L 30.047 1.893 M 30.047 9.307 L 24.137 9.62 M 28.03 10.59 L 32.404 9.329 M 7.878 9.1 L 1.58 9.1 M 7.878 8.7 L 1.58 8.7 M 3.366 1.309 L 2.493 1.671 L 1.808 2.285 L 1.36 3.089 L 1.2 4.02 M 33.9 8.487 L 33.9 2.707 M 1.58 9.6 L 7.31 9.6 M 33.15 8.187 L 33.15 2.472 M 33.165 2.507 L 33.165 8.187 M 7 8.7 L 1.58 8.7 M 29.814 3.92 L 24.506 3.92 M 24.506 7.28 L 29.814 7.28 M 6 6.38 L 1.2 6.38 M 1.3 5.85 L 5.9 5.85 M 12.275 9.6 L 7.908 9.6 M 12.275 1.6 L 7.908 1.6 M 19.85 9.76 L 15.805 9.76 M 19.85 9.66 L 15.805 9.66 M 24.105 3.651 L 24.105 7.583 M 24.105 7.583 L 24.105 3.651 M 7.55 0.45 L 3.65 0.45 M 3.152 3.1 L 6.77 3.1 M 23.93 11.4 L 20.53 11.4 M 13.987 7.67 L 16.965 7.32 M 16.965 4.84 L 13.987 4.49 M 29.811 7.28 L 29.811 3.92 M 24.506 3.92 L 24.506 7.28 M 29.814 7.28 L 29.814 3.92 M 4.046 0.02 L 7.147 0.02 M 7.147 0 L 4.046 0 M 12.305 1.64 L 12.305 4.74 M 12.305 1.64 L 12.305 4.74 M 27.63 11 L 24.605 11 M 23.955 11 L 20.93 11 M 27.63 11.4 L 24.63 11.4 M 13.105 1.6 L 13.105 4.524 M 13.115 4.49 L 13.115 1.635 M 3.159 4.81 L 6 4.81 M 16.965 7.32 L 16.965 4.84 M 30.062 9.277 L 32.401 9.136 M 32.401 2.064 L 30.062 1.923 M 32.522 8.64 L 32.522 6.2 M 32.522 5 L 32.522 2.56 M 32.393 2.044 L 30.127 1.917 M 30.127 9.283 L 32.393 9.156 M 30.128 9.303 L 32.394 9.176 M 32.394 2.024 L 30.128 1.897 M 0 6.75 L 0 4.45 M 33.2 4.76 L 33.2 2.495 M 7 2.05 L 7 4.313 M 12.315 7.18 L 12.315 4.98 M 12.305 7.5 L 12.305 9.56 M 12.305 7.5 L 12.305 9.56 M 33.3 4.743 L 33.3 2.707 M 13.105 7.636 L 13.105 9.6 M 1.2 4.81 L 3.119 4.81 M 22.1 10.82 L 23.998 10.82 M 24.562 10.82 L 26.46 10.82 M 13.115 9.565 L 13.115 7.67 M 1.58 8.7 L 1.58 6.811 M 33.2 8.187 L 33.2 6.435 M 7.001 4.245 L 7.001 2.495 M 33.3 8.187 L 33.3 6.452 M 0.082 6.965 L 1.58 7.245" stroke="#1495ff" stroke-width="0.650" stroke-linecap="round" stroke-linejoin="round" vector-effect="non-scaling-stroke" />
</svg>