<svg xmlns="http://www.w3.org/2000/svg" viewBox="0 0 45.93 13.625" fill="none">
  <path d="M 29.815 1.05 L 16.115 1.05 M 29.815 1.85 L 16.115 1.85 M 29.815 11.775 L 16.115 11.775 M 29.815 12.575 L 16.115 12.575 M 15.105 11.775 L 1.405 11.775 M 15.105 12.575 L 1.405 12.575 M 15.105 1.05 L 1.405 1.05 M 15.105 1.85 L 1.405 1.85 M 44.525 1.05 L 30.825 1.05 M 44.525 1.85 L 30.825 1.85 M 44.525 11.775 L 30.825 11.775 M 44.525 12.575 L 30.825 12.575 M 30.72 13.013 L 30.72 0.613 M 29.92 13.013 L 29.92 0.613 M 1.3 13.013 L 1.3 0.613 M 0.5 13.012 L 0.5 0.612 M 45.43 13.013 L 45.43 0.613 M 44.63 13.013 L 44.63 0.613 M 16.01 13.013 L 16.01 0.613 M 15.21 13.013 L 15.21 0.613 M 0.84 12.984 L 0.84 0.641 M 0.96 12.984 L 0.96 0.641 M 44.97 12.984 L 44.97 0.641 M 45.09 12.984 L 45.09 0.641 M 30.26 12.984 L 30.26 0.641 M 30.38 12.984 L 30.38 0.641 M 15.55 12.984 L 15.55 0.641 M 15.67 12.984 L 15.67 0.641 M 45.435 3.75 L 45.435 0.55 M 45.485 3.75 L 45.485 0.55 M 1.305 3.75 L 1.305 0.55 M 1.355 3.75 L 1.355 0.55 M 44.575 3.75 L 44.575 0.55 M 44.625 3.75 L 44.625 0.55 M 29.865 3.75 L 29.865 0.55 M 29.915 3.75 L 29.915 0.55 M 15.155 3.75 L 15.155 0.55 M 15.205 3.75 L 15.205 0.55 M 30.725 3.75 L 30.725 0.55 M 30.775 3.75 L 30.775 0.55 M 0.445 3.75 L 0.445 0.55 M 0.495 3.75 L 0.495 0.55 M 16.015 3.75 L 16.015 0.55 M 16.065 3.75 L 16.065 0.55 M 45.485 9.875 L 45.485 13.075 M 45.435 9.875 L 45.435 13.075 M 44.625 9.875 L 44.625 13.075 M 44.575 9.875 L 44.575 13.075 M 15.205 9.875 L 15.205 13.075 M 15.155 9.875 L 15.155 13.075 M 30.775 9.875 L 30.775 13.075 M 30.725 9.875 L 30.725 13.075 M 29.915 9.875 L 29.915 13.075 M 29.865 9.875 L 29.865 13.075 M 16.065 9.875 L 16.065 13.075 M 16.015 9.875 L 16.015 13.075 M 0.495 9.875 L 0.495 13.075 M 0.445 9.875 L 0.445 13.075 M 1.355 9.875 L 1.355 13.075 M 1.305 9.875 L 1.305 13.075 M 0.445 11.398 L 0 12.175 L 0.445 12.952 M 0.445 0.673 L 0 1.45 L 0.445 2.227" stroke="#1495ff" stroke-width="0.650" stroke-linecap="round" stroke-linejoin="round" vector-effect="non-scaling-stroke" />
</svg>