<svg xmlns="http://www.w3.org/2000/svg" viewBox="0 0 30 6.75" fill="none">
  <path d="M 0 6.695 L 30 6.695 M 30 0.055 L 0 0.055 M 15.191 6.645 L 29.609 6.645 M 29.609 0.105 L 15.191 0.105 M 0.391 6.645 L 14.809 6.645 M 14.809 0.105 L 0.391 0.105 M 1.235 6.195 L 10.275 6.195 M 10.275 0.555 L 1.235 0.555 M 19.715 6.195 L 28.755 6.195 M 28.755 0.555 L 19.715 0.555 M 0 6.645 L 0 0.105 M 0.4 6.645 L 0.4 0.105 M 14.8 6.645 L 14.8 0.105 M 15.2 6.645 L 15.2 0.105 M 29.6 6.645 L 29.6 0.105 M 30 6.645 L 30 0.105 M 19.17 0.625 L 19.17 6.125 M 20.06 0.625 L 20.06 6.125 M 28.41 0.625 L 28.41 6.125 M 29.3 0.625 L 29.3 6.125 M 9.93 0.625 L 9.93 6.125 M 10.82 0.625 L 10.82 6.125 M 0.69 0.625 L 0.69 6.125 M 1.58 0.625 L 1.58 6.125 M 10.475 6.195 L 14.8 6.195 M 14.8 0.555 L 10.475 0.555 M 15.2 6.195 L 19.515 6.195 M 19.515 0.555 L 15.2 0.555" stroke="#1495ff" stroke-width="0.650" stroke-linecap="round" stroke-linejoin="round" vector-effect="non-scaling-stroke" />
</svg>